<?xml version="1.0" encoding="UTF-8" standalone="no"?>
<!DOCTYPE svg PUBLIC "-//W3C//DTD SVG 20010904//EN"
              "http://www.w3.org/TR/2001/REC-SVG-20010904/DTD/svg10.dtd">

<svg xmlns="http://www.w3.org/2000/svg"
     width="auto" height="auto"
     viewBox="0 0 500 300">
  <path id="Seleção"
        fill="rgb(0,64,123,0.5)" stroke="rgba(0, 0, 0, 0.20)" stroke-width="2"
        d="M 292.00,68.00
           C 292.00,68.00 291.00,74.00 291.00,74.00
             294.75,76.17 298.68,78.71 300.26,83.00
             303.55,91.92 293.32,97.33 286.00,98.00
             289.26,101.14 293.50,103.51 295.10,108.00
             298.29,116.97 288.47,122.32 281.00,123.00
             283.91,126.96 287.96,127.66 289.98,133.00
             292.15,138.77 287.26,145.09 282.00,147.11
             280.06,147.86 278.04,147.90 276.00,148.00
             276.00,148.00 275.00,157.00 275.00,157.00
             275.00,157.00 303.00,157.00 303.00,157.00
             305.05,143.76 315.03,131.95 329.00,131.09
             343.48,130.20 356.30,142.83 357.00,157.00
             357.00,157.00 394.00,157.00 394.00,157.00
             394.00,157.00 409.00,156.00 409.00,156.00
             409.00,156.00 416.00,156.00 416.00,156.00
             426.33,155.82 419.86,151.52 429.18,141.00
             441.07,127.58 459.32,127.68 470.47,142.00
             473.77,146.24 475.18,149.77 476.00,155.00
             480.18,155.00 489.43,155.81 492.61,153.26
             496.71,149.97 496.79,141.38 494.55,137.04
             494.55,137.04 489.50,129.91 489.50,129.91
             486.33,123.15 487.57,119.76 479.96,113.93
             469.97,106.27 462.54,109.53 457.90,103.86
             457.90,103.86 443.20,80.00 443.20,80.00
             435.95,68.05 437.15,68.02 428.00,68.00
             428.00,68.00 292.00,68.00 292.00,68.00 Z
           M 452.00,106.00
           C 452.00,106.00 409.00,106.00 409.00,106.00
             409.00,106.00 409.00,73.00 409.00,73.00
             409.00,73.00 432.82,73.60 432.82,73.60
             432.82,73.60 439.42,82.00 439.42,82.00
             439.42,82.00 452.00,106.00 452.00,106.00 Z
           M 245.06,80.74
           C 240.99,83.23 209.15,89.13 214.00,92.00
             216.17,93.29 249.54,91.99 252.00,92.00
             252.00,92.00 283.00,92.00 283.00,92.00
             286.02,92.00 290.23,92.29 292.69,90.26
             295.81,87.68 297.03,80.17 285.00,80.00
             277.41,79.90 250.75,79.33 245.06,80.74 Z
           M 226.06,105.74
           C 221.99,108.23 200.23,115.16 205.00,118.00
             207.53,119.50 232.11,117.00 235.00,117.00
             235.00,117.00 278.00,117.00 278.00,117.00
             280.29,117.00 283.86,117.13 285.94,116.26
             290.38,114.41 290.86,109.36 287.69,106.74
             285.23,104.71 281.02,105.00 278.00,105.00
             278.00,105.00 245.00,105.00 245.00,105.00
             239.34,105.00 231.36,104.42 226.06,105.74 Z
           M 207.06,130.74
           C 202.97,133.24 186.16,140.13 191.00,143.00
             193.06,144.22 211.65,142.00 214.00,142.00
             214.00,142.00 273.00,142.00 273.00,142.00
             275.25,142.00 278.86,142.14 280.89,141.26
             284.98,139.51 285.82,134.53 282.57,131.85
             280.17,129.87 275.96,130.01 273.00,130.00
             273.00,130.00 230.00,130.00 230.00,130.00
             223.89,130.00 212.50,129.39 207.06,130.74 Z
           M 328.00,136.48
           C 320.67,137.78 315.20,140.33 311.22,147.00
             302.77,161.17 311.62,180.20 329.00,180.96
             355.10,182.10 359.48,147.96 340.00,138.57
             336.34,136.80 332.00,136.25 328.00,136.48 Z
           M 447.00,136.48
           C 440.27,137.93 435.33,139.93 431.48,146.04
             422.67,159.98 430.48,180.19 448.00,180.96
             451.54,181.12 454.68,180.85 458.00,179.52
             480.76,170.44 474.03,133.88 447.00,136.48 Z
           M 327.00,145.39
           C 346.53,142.92 349.54,168.36 333.00,172.28
             317.25,176.00 309.23,151.13 327.00,145.39 Z
           M 447.00,145.34
           C 451.58,144.85 455.19,145.10 458.79,148.39
             466.78,155.70 463.28,170.20 452.00,172.43
             436.50,175.49 428.17,150.83 447.00,145.34 Z" />
</svg>
