<?xml version="1.0" encoding="UTF-8" standalone="no"?>
<!DOCTYPE svg PUBLIC "-//W3C//DTD SVG 20010904//EN"
              "http://www.w3.org/TR/2001/REC-SVG-20010904/DTD/svg10.dtd">

<svg xmlns="http://www.w3.org/2000/svg"
     width="185.234mm" height="66.1551mm"
     viewBox="0 0 700 250">
     <path id="Seleção"
        fill="none" stroke="rgb(0,0,0,0.2)" stroke-width="2"
        d="M 239.00,68.00
           C 239.00,68.00 238.00,75.00 238.00,75.00
             240.65,76.26 241.74,76.84 243.81,79.06
             244.84,80.16 246.00,81.65 246.69,83.00
             252.45,94.31 237.17,94.73 232.00,100.00
             234.43,100.95 235.88,101.53 237.89,103.34
             239.08,104.41 240.09,105.58 240.83,107.01
             247.00,119.08 229.40,120.95 226.00,126.00
             234.71,128.98 234.47,133.77 238.00,141.00
             238.00,141.00 230.00,146.18 230.00,146.18
             223.42,150.06 220.52,147.51 220.00,158.00
             220.00,158.00 250.00,158.00 250.00,158.00
             251.81,146.31 259.21,136.12 271.00,132.93
             282.05,129.93 291.66,135.64 298.54,144.00
             300.36,146.22 302.68,149.24 303.49,152.00
             304.06,153.93 303.98,156.01 304.00,158.00
             304.00,158.00 324.00,158.00 324.00,158.00
             324.00,158.00 339.00,157.00 339.00,157.00
             339.00,157.00 368.00,157.00 368.00,157.00
             368.00,157.00 385.00,158.00 385.00,158.00
             385.00,158.00 437.00,157.00 437.00,157.00
             437.00,157.00 436.00,159.00 436.00,159.00
             436.00,159.00 465.00,157.00 465.00,157.00
             467.73,156.99 473.51,157.39 475.70,155.98
             478.89,153.92 477.79,150.21 482.53,144.00
             491.06,132.82 504.30,128.27 517.00,135.53
             520.08,137.29 523.14,140.02 525.45,142.72
             528.78,146.62 530.22,151.02 531.00,156.00
             535.66,156.00 545.04,157.08 548.35,153.57
             551.66,150.06 551.66,142.14 549.55,138.04
             549.55,138.04 544.97,131.83 544.97,131.83
             542.61,127.73 540.07,112.13 527.00,112.00
             523.20,107.40 518.54,110.98 513.60,105.70
             513.60,105.70 498.20,81.00 498.20,81.00
             490.95,69.05 492.15,69.02 483.00,69.00
             483.00,69.00 357.00,69.00 357.00,69.00
             357.00,69.00 342.00,68.00 342.00,68.00
             342.00,68.00 239.00,68.00 239.00,68.00 Z
           M 507.00,107.00
           C 507.00,107.00 464.00,107.00 464.00,107.00
             464.00,107.00 465.00,73.00 465.00,73.00
             472.75,74.89 485.45,73.28 487.82,74.31
             490.68,75.55 492.89,80.34 494.42,83.00
             498.44,90.00 505.22,99.43 507.00,107.00 Z
           M 191.06,80.74
           C 187.48,82.93 184.99,87.94 189.31,90.83
             191.27,92.13 194.71,91.99 197.00,92.00
             197.00,92.00 229.00,92.00 229.00,92.00
             234.03,91.99 243.52,92.00 241.67,84.11
             240.69,79.96 236.42,80.05 233.00,80.00
             233.00,80.00 191.06,80.74 191.06,80.74 Z
           M 172.06,105.74
           C 168.14,108.13 166.07,113.81 170.43,116.71
             172.67,118.20 177.34,118.00 180.00,118.00
             180.00,118.00 224.00,118.00 224.00,118.00
             226.67,118.00 230.52,118.21 232.85,116.83
             236.32,114.78 237.25,108.55 233.69,106.17
             231.59,104.78 227.48,105.00 225.00,105.00
             225.00,105.00 191.00,105.00 191.00,105.00
             185.34,105.00 177.36,104.42 172.06,105.74 Z
           M 153.06,131.74
           C 149.46,133.94 146.99,139.09 151.31,141.98
             153.16,143.21 156.81,143.00 159.00,143.00
             159.00,143.00 219.00,143.00 219.00,143.00
             223.40,142.99 229.26,143.49 230.53,137.96
             232.02,131.44 225.53,131.06 221.00,131.00
             221.00,131.00 177.00,131.00 177.00,131.00
             170.74,131.00 158.59,130.37 153.06,131.74 Z
           M 275.00,137.44
           C 269.85,138.43 266.08,139.52 262.09,143.21
             253.25,151.40 252.34,168.09 261.33,176.47
             266.67,181.46 274.97,182.93 282.00,181.67
             297.08,178.98 303.78,159.48 296.01,147.00
             291.39,139.59 283.44,136.54 275.00,137.44 Z
           M 502.00,137.48
           C 495.27,138.93 490.33,140.93 486.48,147.04
             477.67,160.98 485.48,181.19 503.00,181.96
             506.54,182.12 509.68,181.85 513.00,180.52
             535.76,171.44 529.03,134.88 502.00,137.48 Z
           M 274.00,146.40
           C 292.03,144.39 297.26,169.40 280.00,173.12
             265.47,176.26 255.70,152.28 274.00,146.40 Z
           M 502.00,146.34
           C 506.58,145.85 510.19,146.10 513.79,149.39
             521.78,156.70 518.28,171.20 507.00,173.43
             491.50,176.49 483.17,151.83 502.00,146.34 Z" />
  <path id="Seleção #1"
        fill="rgba(0,64,123,0)" stroke="rgb(0,0,0,0.2)" stroke-width="1.4"
        d="M 272.00,109.00
           C 270.02,109.01 266.17,108.76 264.60,110.02
             263.66,110.78 263.29,111.86 263.29,113.04
             263.29,117.80 268.25,118.79 272.00,118.96
             279.52,119.30 287.55,117.01 292.39,110.91
             294.19,108.63 296.27,105.13 294.77,102.22
             293.08,98.93 284.54,96.93 281.00,96.00
             282.97,90.39 288.08,86.55 292.00,93.00
             292.00,93.00 301.00,93.00 301.00,93.00
             300.94,91.28 301.10,89.15 300.01,87.70
             298.44,85.62 294.43,85.09 292.00,85.08
             285.42,85.05 276.38,87.98 272.98,94.01
             267.72,103.36 281.98,102.87 283.83,107.22
             285.39,110.87 280.14,114.14 277.02,114.04
             273.63,113.93 272.85,111.72 272.00,109.00 Z
           M 295.00,118.00
           C 295.00,118.00 315.00,118.00 315.00,118.00
             315.00,118.00 321.61,117.43 321.61,117.43
             321.61,117.43 325.00,113.00 325.00,113.00
             325.00,113.00 306.00,112.00 306.00,112.00
             307.96,109.27 309.75,105.24 313.10,104.31
             320.03,102.40 326.37,107.57 330.00,99.00
             330.00,99.00 314.00,98.00 314.00,98.00
             315.53,95.20 316.76,92.24 320.10,91.31
             326.70,89.50 335.29,94.49 338.00,86.00
             333.80,86.00 315.72,85.54 313.05,86.60
             309.59,87.97 308.16,91.92 306.53,95.00
             303.27,101.16 296.78,111.87 295.00,118.00 Z
           M 329.00,118.00
           C 340.64,118.00 351.45,120.05 360.83,111.53
             365.30,107.47 375.96,91.97 367.85,87.17
             365.68,85.89 362.46,86.01 360.00,86.00
             357.40,85.99 348.28,85.68 346.41,86.57
             344.15,87.65 341.97,92.74 340.77,95.00
             340.77,95.00 329.00,118.00 329.00,118.00 Z
           M 365.00,119.00
           C 365.00,119.00 386.00,119.00 386.00,119.00
             386.00,119.00 392.35,118.01 392.35,118.01
             392.35,118.01 395.00,113.00 395.00,113.00
             395.00,113.00 377.00,112.00 377.00,112.00
             378.83,108.85 380.22,105.33 384.04,104.31
             391.14,102.43 397.23,107.56 401.00,99.00
             401.00,99.00 385.00,99.00 385.00,99.00
             385.91,95.91 386.82,92.94 390.10,91.60
             396.85,88.84 405.64,95.07 409.00,86.00
             409.00,86.00 388.00,86.00 388.00,86.00
             379.99,86.14 379.83,90.51 376.36,97.00
             373.14,103.01 366.91,112.96 365.00,119.00 Z
           M 417.20,86.00
           C 417.01,89.38 418.23,98.71 417.20,100.83
             416.07,104.20 402.58,114.60 399.00,117.00
             408.29,120.68 414.41,112.13 421.00,107.00
             421.00,107.00 423.00,119.00 423.00,119.00
             423.00,119.00 432.00,119.00 432.00,119.00
             432.00,119.00 431.04,103.01 431.04,103.01
             431.96,98.79 444.11,90.00 448.00,87.00
             437.36,82.78 435.69,92.70 426.00,96.00
             426.00,96.00 426.00,86.00 426.00,86.00
             426.00,86.00 417.20,86.00 417.20,86.00 Z
           M 341.00,112.79
           C 341.90,108.25 342.77,107.21 344.92,103.00
             346.40,100.11 349.49,93.58 352.21,92.03
             355.52,90.13 362.09,91.53 360.96,98.00
             360.00,103.45 354.49,111.07 349.00,112.79
             347.01,113.11 343.17,113.00 341.00,112.79 Z" />
  </svg>
