<?xml version="1.0" encoding="UTF-8" standalone="no"?>
<!DOCTYPE svg PUBLIC "-//W3C//DTD SVG 20010904//EN"
              "http://www.w3.org/TR/2001/REC-SVG-20010904/DTD/svg10.dtd">

<svg xmlns="http://www.w3.org/2000/svg"
     width="185.234mm" height="66.1551mm"
     viewBox="0 0 700 250">
     <path id="Seleção"
        fill="none" stroke="rgb(0,0,0,0.2)" stroke-width="2"
        d="M 239.00,68.00
           C 239.00,68.00 238.00,75.00 238.00,75.00
             240.65,76.26 241.74,76.84 243.81,79.06
             244.84,80.16 246.00,81.65 246.69,83.00
             252.45,94.31 237.17,94.73 232.00,100.00
             234.43,100.95 235.88,101.53 237.89,103.34
             239.08,104.41 240.09,105.58 240.83,107.01
             247.00,119.08 229.40,120.95 226.00,126.00
             234.71,128.98 234.47,133.77 238.00,141.00
             238.00,141.00 230.00,146.18 230.00,146.18
             223.42,150.06 220.52,147.51 220.00,158.00
             220.00,158.00 250.00,158.00 250.00,158.00
             251.81,146.31 259.21,136.12 271.00,132.93
             282.05,129.93 291.66,135.64 298.54,144.00
             300.36,146.22 302.68,149.24 303.49,152.00
             304.06,153.93 303.98,156.01 304.00,158.00
             304.00,158.00 324.00,158.00 324.00,158.00
             324.00,158.00 339.00,157.00 339.00,157.00
             339.00,157.00 368.00,157.00 368.00,157.00
             368.00,157.00 385.00,158.00 385.00,158.00
             385.00,158.00 437.00,157.00 437.00,157.00
             437.00,157.00 436.00,159.00 436.00,159.00
             436.00,159.00 465.00,157.00 465.00,157.00
             467.73,156.99 473.51,157.39 475.70,155.98
             478.89,153.92 477.79,150.21 482.53,144.00
             491.06,132.82 504.30,128.27 517.00,135.53
             520.08,137.29 523.14,140.02 525.45,142.72
             528.78,146.62 530.22,151.02 531.00,156.00
             535.66,156.00 545.04,157.08 548.35,153.57
             551.66,150.06 551.66,142.14 549.55,138.04
             549.55,138.04 544.97,131.83 544.97,131.83
             542.61,127.73 540.07,112.13 527.00,112.00
             523.20,107.40 518.54,110.98 513.60,105.70
             513.60,105.70 498.20,81.00 498.20,81.00
             490.95,69.05 492.15,69.02 483.00,69.00
             483.00,69.00 357.00,69.00 357.00,69.00
             357.00,69.00 342.00,68.00 342.00,68.00
             342.00,68.00 239.00,68.00 239.00,68.00 Z
           M 507.00,107.00
           C 507.00,107.00 464.00,107.00 464.00,107.00
             464.00,107.00 465.00,73.00 465.00,73.00
             472.75,74.89 485.45,73.28 487.82,74.31
             490.68,75.55 492.89,80.34 494.42,83.00
             498.44,90.00 505.22,99.43 507.00,107.00 Z
           M 191.06,80.74
           C 187.48,82.93 184.99,87.94 189.31,90.83
             191.27,92.13 194.71,91.99 197.00,92.00
             197.00,92.00 229.00,92.00 229.00,92.00
             234.03,91.99 243.52,92.00 241.67,84.11
             240.69,79.96 236.42,80.05 233.00,80.00
             233.00,80.00 191.06,80.74 191.06,80.74 Z
           M 172.06,105.74
           C 168.14,108.13 166.07,113.81 170.43,116.71
             172.67,118.20 177.34,118.00 180.00,118.00
             180.00,118.00 224.00,118.00 224.00,118.00
             226.67,118.00 230.52,118.21 232.85,116.83
             236.32,114.78 237.25,108.55 233.69,106.17
             231.59,104.78 227.48,105.00 225.00,105.00
             225.00,105.00 191.00,105.00 191.00,105.00
             185.34,105.00 177.36,104.42 172.06,105.74 Z
           M 153.06,131.74
           C 149.46,133.94 146.99,139.09 151.31,141.98
             153.16,143.21 156.81,143.00 159.00,143.00
             159.00,143.00 219.00,143.00 219.00,143.00
             223.40,142.99 229.26,143.49 230.53,137.96
             232.02,131.44 225.53,131.06 221.00,131.00
             221.00,131.00 177.00,131.00 177.00,131.00
             170.74,131.00 158.59,130.37 153.06,131.74 Z
           M 275.00,137.44
           C 269.85,138.43 266.08,139.52 262.09,143.21
             253.25,151.40 252.34,168.09 261.33,176.47
             266.67,181.46 274.97,182.93 282.00,181.67
             297.08,178.98 303.78,159.48 296.01,147.00
             291.39,139.59 283.44,136.54 275.00,137.44 Z
           M 502.00,137.48
           C 495.27,138.93 490.33,140.93 486.48,147.04
             477.67,160.98 485.48,181.19 503.00,181.96
             506.54,182.12 509.68,181.85 513.00,180.52
             535.76,171.44 529.03,134.88 502.00,137.48 Z
           M 274.00,146.40
           C 292.03,144.39 297.26,169.40 280.00,173.12
             265.47,176.26 255.70,152.28 274.00,146.40 Z
           M 502.00,146.34
           C 506.58,145.85 510.19,146.10 513.79,149.39
             521.78,156.70 518.28,171.20 507.00,173.43
             491.50,176.49 483.17,151.83 502.00,146.34 Z" />
<path id="Seleção #1"
        fill="none" stroke="rgb(0,0,0,0.2)" stroke-width="1.4"
        d="M 431.00,105.00
           C 427.25,105.00 424.46,104.66 421.00,106.41
             418.26,107.80 414.31,111.34 411.06,110.87
             408.00,110.43 407.28,107.64 407.78,105.00
             408.84,99.34 415.22,92.35 420.00,89.40
             424.73,86.48 429.60,85.94 429.00,93.00
             431.47,93.00 436.58,93.35 438.57,91.98
             441.73,89.80 441.38,84.16 438.57,81.85
             436.25,79.95 431.87,79.91 429.00,80.04
             416.80,80.57 404.38,90.58 398.79,101.00
             396.89,104.55 394.10,109.95 396.19,113.89
             398.50,118.26 404.55,119.28 409.00,118.70
             418.14,117.50 426.35,113.14 431.00,105.00 Z
           M 315.00,118.00
           C 317.65,118.00 322.29,118.37 324.54,117.01
             328.12,114.83 330.32,108.44 335.04,106.60
             340.06,104.64 350.63,107.38 361.00,97.90
             362.63,96.40 365.11,93.86 366.26,92.00
             367.38,90.19 368.01,88.19 367.73,86.05
             366.78,78.67 357.46,81.34 353.00,83.16
             351.65,79.23 342.04,80.90 339.60,83.16
             339.60,83.16 325.80,102.00 325.80,102.00
             321.34,108.29 318.35,110.60 315.00,118.00 Z
           M 348.00,117.85
           C 349.78,118.00 354.33,118.11 355.83,117.85
             358.81,116.92 360.22,114.55 363.01,113.09
             366.93,111.23 371.94,112.01 376.00,113.09
             376.00,113.09 374.00,118.00 374.00,118.00
             374.00,118.00 383.35,117.01 383.35,117.01
             383.35,117.01 387.79,107.00 387.79,107.00
             387.79,107.00 397.00,81.00 397.00,81.00
             397.00,81.00 386.00,81.60 386.00,81.60
             386.00,81.60 365.00,100.99 365.00,100.99
             365.00,100.99 348.00,117.85 348.00,117.85 Z
           M 353.00,84.00
           C 353.00,84.00 353.00,88.00 353.00,88.00
             353.00,88.00 357.00,89.00 357.00,89.00
             354.66,96.32 350.85,98.25 344.00,101.00
             344.00,101.00 339.00,99.00 339.00,99.00
             341.84,90.82 347.55,89.57 353.00,84.00 Z
           M 355.00,84.00
           C 355.00,84.00 355.00,85.00 355.00,85.00
             355.00,85.00 354.00,84.00 354.00,84.00
             354.00,84.00 355.00,84.00 355.00,84.00 Z
           M 384.00,91.00
           C 383.47,94.72 381.26,104.54 377.72,106.26
             375.80,107.20 371.24,107.00 369.00,107.00
             371.75,101.18 378.76,94.75 384.00,91.00 Z" />
 </svg>
