<?xml version="1.0" encoding="UTF-8" standalone="no"?>
<!DOCTYPE svg PUBLIC "-//W3C//DTD SVG 20010904//EN"
              "http://www.w3.org/TR/2001/REC-SVG-20010904/DTD/svg10.dtd">

<svg xmlns="http://www.w3.org/2000/svg"
     width="185.234mm" height="66.1551mm"
     viewBox="0 0 700 250">
  <path id="Seleção #1"
        fill="none" stroke="black" stroke-width="1"
        d="M 431.00,105.00
           C 427.25,105.00 424.46,104.66 421.00,106.41
             418.26,107.80 414.31,111.34 411.06,110.87
             408.00,110.43 407.28,107.64 407.78,105.00
             408.84,99.34 415.22,92.35 420.00,89.40
             424.73,86.48 429.60,85.94 429.00,93.00
             431.47,93.00 436.58,93.35 438.57,91.98
             441.73,89.80 441.38,84.16 438.57,81.85
             436.25,79.95 431.87,79.91 429.00,80.04
             416.80,80.57 404.38,90.58 398.79,101.00
             396.89,104.55 394.10,109.95 396.19,113.89
             398.50,118.26 404.55,119.28 409.00,118.70
             418.14,117.50 426.35,113.14 431.00,105.00 Z
           M 315.00,118.00
           C 317.65,118.00 322.29,118.37 324.54,117.01
             328.12,114.83 330.32,108.44 335.04,106.60
             340.06,104.64 350.63,107.38 361.00,97.90
             362.63,96.40 365.11,93.86 366.26,92.00
             367.38,90.19 368.01,88.19 367.73,86.05
             366.78,78.67 357.46,81.34 353.00,83.16
             351.65,79.23 342.04,80.90 339.60,83.16
             339.60,83.16 325.80,102.00 325.80,102.00
             321.34,108.29 318.35,110.60 315.00,118.00 Z
           M 348.00,117.85
           C 349.78,118.00 354.33,118.11 355.83,117.85
             358.81,116.92 360.22,114.55 363.01,113.09
             366.93,111.23 371.94,112.01 376.00,113.09
             376.00,113.09 374.00,118.00 374.00,118.00
             374.00,118.00 383.35,117.01 383.35,117.01
             383.35,117.01 387.79,107.00 387.79,107.00
             387.79,107.00 397.00,81.00 397.00,81.00
             397.00,81.00 386.00,81.60 386.00,81.60
             386.00,81.60 365.00,100.99 365.00,100.99
             365.00,100.99 348.00,117.85 348.00,117.85 Z
           M 353.00,84.00
           C 353.00,84.00 353.00,88.00 353.00,88.00
             353.00,88.00 357.00,89.00 357.00,89.00
             354.66,96.32 350.85,98.25 344.00,101.00
             344.00,101.00 339.00,99.00 339.00,99.00
             341.84,90.82 347.55,89.57 353.00,84.00 Z
           M 355.00,84.00
           C 355.00,84.00 355.00,85.00 355.00,85.00
             355.00,85.00 354.00,84.00 354.00,84.00
             354.00,84.00 355.00,84.00 355.00,84.00 Z
           M 384.00,91.00
           C 383.47,94.72 381.26,104.54 377.72,106.26
             375.80,107.20 371.24,107.00 369.00,107.00
             371.75,101.18 378.76,94.75 384.00,91.00 Z" />
</svg>
