<?xml version="1.0" encoding="UTF-8" standalone="no"?>
<!DOCTYPE svg PUBLIC "-//W3C//DTD SVG 20010904//EN"
              "http://www.w3.org/TR/2001/REC-SVG-20010904/DTD/svg10.dtd">

<svg xmlns="http://www.w3.org/2000/svg"
     width="2.66667in" height="2.66667in"
     viewBox="0 0 400 400">
  <path id="Seleção"
        fill="none" stroke="black" stroke-width="1"
        d="M 22.00,70.00
           C 22.00,70.00 22.00,329.00 22.00,329.00
             32.20,330.83 52.71,330.00 64.00,330.00
             64.00,330.00 138.00,330.00 138.00,330.00
             138.00,330.00 369.00,330.00 369.00,330.00
             376.73,329.98 377.94,330.13 378.00,322.00
             378.00,322.00 378.00,270.00 378.00,270.00
             378.00,270.00 378.00,70.00 378.00,70.00
             378.00,70.00 22.00,70.00 22.00,70.00 Z
           M 285.00,170.00
           C 281.08,171.31 276.77,182.13 274.58,186.00
             274.58,186.00 255.60,219.00 255.60,219.00
             253.82,222.01 248.63,231.80 246.61,233.63
             243.40,236.55 238.10,235.05 234.00,235.00
             234.00,235.00 188.00,236.00 188.00,236.00
             186.95,229.85 193.31,221.44 196.43,216.00
             196.43,216.00 214.86,183.00 214.86,183.00
             216.54,179.99 222.28,170.65 222.82,168.00
             223.77,163.36 216.57,152.47 214.26,148.00
             214.26,148.00 188.00,97.00 188.00,97.00
             193.71,95.38 200.08,96.00 206.00,96.00
             206.00,96.00 235.00,96.00 235.00,96.00
             238.33,96.03 244.95,95.68 247.53,97.75
             250.06,99.78 256.01,112.35 258.02,116.00
             258.02,116.00 275.86,149.00 275.86,149.00
             279.56,155.66 284.56,162.21 285.00,170.00 Z
           M 271.00,132.00
           C 271.00,132.00 271.00,133.00 271.00,133.00
             271.00,133.00 270.00,132.00 270.00,132.00
             270.00,132.00 271.00,132.00 271.00,132.00 Z
           M 277.00,147.00
           C 277.00,147.00 277.00,148.00 277.00,148.00
             277.00,148.00 276.00,147.00 276.00,147.00
             276.00,147.00 277.00,147.00 277.00,147.00 Z
           M 214.00,148.00
           C 214.00,148.00 214.00,149.00 214.00,149.00
             214.00,149.00 213.00,148.00 213.00,148.00
             213.00,148.00 214.00,148.00 214.00,148.00 Z
           M 279.00,150.00
           C 279.00,150.00 279.00,151.00 279.00,151.00
             279.00,151.00 278.00,150.00 278.00,150.00
             278.00,150.00 279.00,150.00 279.00,150.00 Z
           M 219.00,159.00
           C 219.00,159.00 219.00,160.00 219.00,160.00
             219.00,160.00 218.00,159.00 218.00,159.00
             218.00,159.00 219.00,159.00 219.00,159.00 Z
           M 219.00,163.00
           C 219.00,163.00 219.00,164.00 219.00,164.00
             219.00,164.00 218.00,163.00 218.00,163.00
             218.00,163.00 219.00,163.00 219.00,163.00 Z
           M 80.00,164.00
           C 80.00,164.00 80.00,165.00 80.00,165.00
             80.00,165.00 79.00,164.00 79.00,164.00
             79.00,164.00 80.00,164.00 80.00,164.00 Z
           M 164.00,164.00
           C 164.00,164.00 164.00,165.00 164.00,165.00
             164.00,165.00 163.00,164.00 163.00,164.00
             163.00,164.00 164.00,164.00 164.00,164.00 Z
           M 172.00,164.93
           C 172.00,164.93 161.88,185.17 161.88,185.17
             161.88,185.17 141.00,224.00 141.00,224.00
             143.91,221.23 145.54,219.06 146.00,215.00
             146.00,215.00 148.00,211.00 148.00,211.00
             151.48,209.84 156.80,198.78 157.00,195.00
             160.19,193.94 161.29,190.12 162.95,187.28
             165.50,182.94 172.79,168.04 176.21,166.02
             178.16,164.87 180.81,165.03 183.00,165.00
             181.82,172.20 177.23,177.70 173.73,184.00
             169.55,191.52 161.11,209.00 156.00,215.00
             156.00,215.00 159.00,216.00 159.00,216.00
             159.00,216.00 164.00,203.00 164.00,203.00
             164.00,203.00 172.00,193.00 172.00,193.00
             172.00,193.00 171.00,191.00 171.00,191.00
             171.00,191.00 179.76,177.00 179.76,177.00
             179.76,177.00 185.00,166.00 185.00,166.00
             189.57,164.72 190.46,164.28 195.00,166.00
             193.38,170.39 188.85,179.53 185.00,182.00
             185.00,182.00 186.00,185.00 186.00,185.00
             180.71,189.95 168.33,213.91 164.06,221.72
             162.19,225.12 157.57,231.23 157.91,235.00
             158.17,237.96 166.22,251.53 168.22,255.00
             168.22,255.00 195.00,302.94 195.00,302.94
             195.00,302.94 188.21,302.94 188.21,302.94
             188.21,302.94 182.80,296.09 182.80,296.09
             182.80,296.09 172.00,279.00 172.00,279.00
             172.00,279.00 183.00,304.00 183.00,304.00
             180.79,303.89 178.34,303.91 176.39,302.71
             173.21,300.76 168.58,290.66 167.00,287.00
             164.81,293.47 169.87,294.69 172.00,303.00
             162.97,305.26 162.41,299.54 158.55,293.00
             154.56,286.25 145.80,269.49 141.00,265.00
             141.00,265.00 125.00,232.00 125.00,232.00
             125.00,232.00 138.74,209.42 138.74,209.42
             138.74,209.42 147.00,194.00 147.00,194.00
             150.27,190.70 156.69,178.66 159.23,174.00
             161.28,170.25 163.31,165.62 168.01,164.93
             169.34,164.66 170.68,164.89 172.00,164.93 Z
           M 184.00,164.00
           C 184.00,164.00 184.00,165.00 184.00,165.00
             184.00,165.00 183.00,164.00 183.00,164.00
             183.00,164.00 184.00,164.00 184.00,164.00 Z
           M 187.00,164.00
           C 187.00,164.00 187.00,165.00 187.00,165.00
             187.00,165.00 186.00,164.00 186.00,164.00
             186.00,164.00 187.00,164.00 187.00,164.00 Z
           M 206.00,166.00
           C 206.00,166.00 198.00,183.00 198.00,183.00
             207.28,173.90 205.43,162.86 217.00,166.00
             217.00,166.00 206.01,187.00 206.01,187.00
             206.01,187.00 190.21,215.00 190.21,215.00
             190.21,215.00 180.39,233.96 180.39,233.96
             180.39,233.96 185.60,245.73 185.60,245.73
             185.60,245.73 205.00,278.00 205.00,278.00
             205.08,280.19 204.79,280.46 207.00,281.00
             207.00,281.00 217.00,303.00 217.00,303.00
             217.00,303.00 210.00,304.00 210.00,304.00
             210.00,304.00 205.38,295.72 205.38,295.72
             205.38,295.72 193.97,276.01 193.97,276.01
             193.97,276.01 181.00,252.00 181.00,252.00
             181.00,252.00 180.00,253.00 180.00,253.00
             180.00,253.00 178.00,252.00 178.00,252.00
             178.00,252.00 190.32,273.42 190.32,273.42
             190.32,273.42 199.00,287.00 199.00,287.00
             199.00,287.00 198.00,289.00 198.00,289.00
             198.00,289.00 204.00,296.00 204.00,296.00
             204.00,296.00 206.00,303.00 206.00,303.00
             195.90,304.97 195.56,298.63 191.34,291.00
             191.34,291.00 168.28,251.00 168.28,251.00
             166.20,247.35 159.86,237.73 159.97,234.00
             160.17,227.35 173.37,213.51 174.00,204.00
             174.00,204.00 175.00,203.00 175.00,203.00
             175.00,203.00 177.00,204.00 177.00,204.00
             177.00,204.00 179.00,196.00 179.00,196.00
             183.07,192.21 189.83,180.29 192.58,175.00
             196.33,167.78 197.08,162.97 206.00,166.00 Z
           M 312.00,164.00
           C 312.36,170.78 307.17,176.32 304.01,182.00
             304.01,182.00 281.57,222.00 281.57,222.00
             277.53,229.07 276.05,236.43 267.00,235.00
             268.55,226.48 272.59,222.23 276.72,215.00
             276.72,215.00 296.00,181.00 296.00,181.00
             301.20,171.95 301.51,166.92 312.00,164.00 Z
           M 335.00,165.00
           C 335.00,165.00 323.00,191.00 323.00,191.00
             319.57,192.15 317.75,197.86 316.02,201.00
             311.88,208.55 300.36,226.85 299.00,234.00
             293.83,234.50 295.05,236.22 289.00,234.00
             289.00,234.00 319.70,179.00 319.70,179.00
             319.70,179.00 328.00,164.00 328.00,164.00
             328.00,164.00 335.00,165.00 335.00,165.00 Z
           M 350.00,164.00
           C 350.00,164.00 350.00,165.00 350.00,165.00
             350.00,165.00 349.00,164.00 349.00,164.00
             349.00,164.00 350.00,164.00 350.00,164.00 Z
           M 145.00,166.00
           C 145.00,166.00 135.99,182.00 135.99,182.00
             135.99,182.00 115.88,218.00 115.88,218.00
             114.03,221.44 107.93,233.04 104.79,234.40
             103.12,235.12 99.87,235.00 98.00,235.00
             98.00,235.00 42.00,236.00 42.00,236.00
             42.00,236.00 44.00,227.00 44.00,227.00
             48.12,222.95 50.14,217.94 53.01,213.00
             53.01,213.00 71.00,181.00 71.00,181.00
             79.83,165.55 78.33,165.02 88.00,165.00
             88.00,165.00 124.00,165.00 124.00,165.00
             130.80,165.00 138.43,164.40 145.00,166.00 Z
           M 161.00,166.00
           C 161.00,166.00 148.49,189.00 148.49,189.00
             148.49,189.00 144.00,199.00 144.00,199.00
             144.00,199.00 141.00,200.00 141.00,200.00
             141.00,200.00 142.00,203.00 142.00,203.00
             138.62,204.13 136.33,209.59 136.00,213.00
             136.00,213.00 133.00,214.00 133.00,214.00
             133.00,214.00 134.00,217.00 134.00,217.00
             131.12,219.39 124.64,229.40 123.97,233.09
             123.59,234.91 124.00,237.13 123.97,239.00
             123.97,239.00 127.00,240.00 127.00,240.00
             127.29,244.37 130.53,247.90 132.49,251.73
             132.49,251.73 140.98,266.09 140.98,266.09
             144.49,272.84 148.28,282.00 154.00,287.00
             154.00,287.00 153.00,290.00 153.00,290.00
             156.65,291.05 159.99,300.40 160.00,304.00
             150.23,303.20 149.71,297.99 145.15,290.00
             145.15,290.00 123.57,252.00 123.57,252.00
             121.62,248.60 114.85,238.27 114.69,235.00
             114.47,230.73 120.54,224.21 122.00,217.00
             125.53,215.82 130.80,204.79 131.00,201.00
             135.97,196.62 143.43,181.52 147.15,175.00
             151.19,167.92 151.75,163.40 161.00,166.00 Z
           M 301.00,166.00
           C 299.26,171.29 293.89,179.85 291.01,185.00
             291.01,185.00 271.03,220.72 271.03,220.72
             271.03,220.72 267.09,227.01 267.09,227.01
             263.36,233.54 263.24,236.38 255.00,235.00
             256.51,228.84 263.31,218.82 266.67,213.00
             266.67,213.00 285.60,179.00 285.60,179.00
             289.65,172.16 291.49,163.42 301.00,166.00 Z
           M 305.00,165.00
           C 305.00,165.00 305.00,166.00 305.00,166.00
             305.00,166.00 304.00,165.00 304.00,165.00
             304.00,165.00 305.00,165.00 305.00,165.00 Z
           M 324.00,166.00
           C 324.00,166.00 295.71,217.00 295.71,217.00
             295.71,217.00 285.39,234.02 285.39,234.02
             285.39,234.02 279.00,236.00 279.00,236.00
             278.17,230.27 283.46,223.03 286.28,218.00
             286.28,218.00 309.15,178.00 309.15,178.00
             313.20,170.91 314.30,163.34 324.00,166.00 Z
           M 346.00,165.00
           C 346.00,165.00 345.00,172.00 345.00,172.00
             340.61,176.44 334.13,189.11 330.86,195.00
             330.86,195.00 317.79,217.83 317.79,217.83
             315.94,221.55 310.01,233.01 306.79,234.80
             304.76,235.60 302.17,235.18 300.00,234.80
             300.00,234.80 329.14,182.16 329.14,182.16
             331.23,178.34 336.59,167.35 340.21,165.74
             341.96,164.96 344.13,165.05 346.00,165.00 Z
           M 358.00,166.00
           C 358.00,166.00 328.30,219.00 328.30,219.00
             326.10,223.01 321.83,232.98 317.83,234.85
             316.21,235.39 313.75,235.08 312.00,234.85
             314.06,224.72 329.79,205.82 331.00,196.00
             331.00,196.00 332.00,195.00 332.00,195.00
             332.00,195.00 334.00,196.00 334.00,196.00
             334.00,196.00 342.00,178.00 342.00,178.00
             348.06,171.93 347.22,163.08 358.00,166.00 Z
           M 326.00,166.00
           C 326.00,166.00 326.00,167.00 326.00,167.00
             326.00,167.00 325.00,166.00 325.00,166.00
             325.00,166.00 326.00,166.00 326.00,166.00 Z
           M 337.00,166.00
           C 337.00,166.00 337.00,167.00 337.00,167.00
             337.00,167.00 336.00,166.00 336.00,166.00
             336.00,166.00 337.00,166.00 337.00,166.00 Z
           M 336.00,169.00
           C 336.00,169.00 336.00,170.00 336.00,170.00
             336.00,170.00 335.00,169.00 335.00,169.00
             335.00,169.00 336.00,169.00 336.00,169.00 Z
           M 284.00,171.00
           C 284.00,171.00 284.00,172.00 284.00,172.00
             284.00,172.00 283.00,171.00 283.00,171.00
             283.00,171.00 284.00,171.00 284.00,171.00 Z
           M 159.00,172.00
           C 159.00,172.00 159.00,173.00 159.00,173.00
             159.00,173.00 158.00,172.00 158.00,172.00
             158.00,172.00 159.00,172.00 159.00,172.00 Z
           M 191.00,176.00
           C 191.00,176.00 191.00,177.00 191.00,177.00
             191.00,177.00 190.00,176.00 190.00,176.00
             190.00,176.00 191.00,176.00 191.00,176.00 Z
           M 177.00,180.00
           C 177.00,180.00 177.00,181.00 177.00,181.00
             177.00,181.00 176.00,180.00 176.00,180.00
             176.00,180.00 177.00,180.00 177.00,180.00 Z
           M 176.00,182.00
           C 176.00,182.00 176.00,183.00 176.00,183.00
             176.00,183.00 175.00,182.00 175.00,182.00
             175.00,182.00 176.00,182.00 176.00,182.00 Z
           M 138.00,185.00
           C 138.00,185.00 138.00,186.00 138.00,186.00
             138.00,186.00 137.00,185.00 137.00,185.00
             137.00,185.00 138.00,185.00 138.00,185.00 Z
           M 139.00,187.00
           C 139.00,187.00 139.00,188.00 139.00,188.00
             139.00,188.00 138.00,187.00 138.00,187.00
             138.00,187.00 139.00,187.00 139.00,187.00 Z
           M 280.00,188.00
           C 280.00,188.00 280.00,189.00 280.00,189.00
             280.00,189.00 279.00,188.00 279.00,188.00
             279.00,188.00 280.00,188.00 280.00,188.00 Z
           M 302.00,188.00
           C 302.00,188.00 302.00,189.00 302.00,189.00
             302.00,189.00 301.00,188.00 301.00,188.00
             301.00,188.00 302.00,188.00 302.00,188.00 Z
           M 278.00,190.00
           C 278.00,190.00 278.00,191.00 278.00,191.00
             278.00,191.00 277.00,190.00 277.00,190.00
             277.00,190.00 278.00,190.00 278.00,190.00 Z
           M 334.00,193.00
           C 334.00,193.00 334.00,194.00 334.00,194.00
             334.00,194.00 333.00,193.00 333.00,193.00
             333.00,193.00 334.00,193.00 334.00,193.00 Z
           M 310.00,195.00
           C 310.00,195.00 310.00,196.00 310.00,196.00
             310.00,196.00 309.00,195.00 309.00,195.00
             309.00,195.00 310.00,195.00 310.00,195.00 Z
           M 286.00,196.00
           C 286.00,196.00 286.00,197.00 286.00,197.00
             286.00,197.00 285.00,196.00 285.00,196.00
             285.00,196.00 286.00,196.00 286.00,196.00 Z
           M 320.00,196.00
           C 320.00,196.00 320.00,197.00 320.00,197.00
             320.00,197.00 319.00,196.00 319.00,196.00
             319.00,196.00 320.00,196.00 320.00,196.00 Z
           M 133.00,199.00
           C 133.00,199.00 133.00,200.00 133.00,200.00
             133.00,200.00 132.00,199.00 132.00,199.00
             132.00,199.00 133.00,199.00 133.00,199.00 Z
           M 200.00,201.00
           C 200.00,201.00 200.00,202.00 200.00,202.00
             200.00,202.00 199.00,201.00 199.00,201.00
             199.00,201.00 200.00,201.00 200.00,201.00 Z
           M 57.00,204.00
           C 57.00,204.00 57.00,205.00 57.00,205.00
             57.00,205.00 56.00,204.00 56.00,204.00
             56.00,204.00 57.00,204.00 57.00,204.00 Z
           M 293.00,204.00
           C 293.00,204.00 293.00,205.00 293.00,205.00
             293.00,205.00 292.00,204.00 292.00,204.00
             292.00,204.00 293.00,204.00 293.00,204.00 Z
           M 316.00,204.00
           C 316.00,204.00 316.00,205.00 316.00,205.00
             316.00,205.00 315.00,204.00 315.00,204.00
             315.00,204.00 316.00,204.00 316.00,204.00 Z
           M 141.00,205.00
           C 141.00,205.00 141.00,206.00 141.00,206.00
             141.00,206.00 140.00,205.00 140.00,205.00
             140.00,205.00 141.00,205.00 141.00,205.00 Z
           M 301.00,211.00
           C 301.00,211.00 301.00,212.00 301.00,212.00
             301.00,212.00 300.00,211.00 300.00,211.00
             300.00,211.00 301.00,211.00 301.00,211.00 Z
           M 277.00,212.00
           C 277.00,212.00 277.00,213.00 277.00,213.00
             277.00,213.00 276.00,212.00 276.00,212.00
             276.00,212.00 277.00,212.00 277.00,212.00 Z
           M 168.00,216.00
           C 168.00,216.00 168.00,217.00 168.00,217.00
             168.00,217.00 167.00,216.00 167.00,216.00
             167.00,216.00 168.00,216.00 168.00,216.00 Z
           M 119.00,219.00
           C 119.00,219.00 119.00,220.00 119.00,220.00
             119.00,220.00 118.00,219.00 118.00,219.00
             118.00,219.00 119.00,219.00 119.00,219.00 Z
           M 318.00,219.00
           C 318.00,219.00 318.00,220.00 318.00,220.00
             318.00,220.00 317.00,219.00 317.00,219.00
             317.00,219.00 318.00,219.00 318.00,219.00 Z
           M 189.00,220.00
           C 189.00,220.00 189.00,221.00 189.00,221.00
             189.00,221.00 188.00,220.00 188.00,220.00
             188.00,220.00 189.00,220.00 189.00,220.00 Z
           M 307.00,220.00
           C 307.00,220.00 307.00,221.00 307.00,221.00
             307.00,221.00 306.00,220.00 306.00,220.00
             306.00,220.00 307.00,220.00 307.00,220.00 Z
           M 283.00,222.00
           C 283.00,222.00 283.00,223.00 283.00,223.00
             283.00,223.00 282.00,222.00 282.00,222.00
             282.00,222.00 283.00,222.00 283.00,222.00 Z
           M 131.00,223.00
           C 131.00,223.00 131.00,224.00 131.00,224.00
             131.00,224.00 130.00,223.00 130.00,223.00
             130.00,223.00 131.00,223.00 131.00,223.00 Z
           M 113.00,225.00
           C 113.00,225.00 113.00,226.00 113.00,226.00
             113.00,226.00 112.00,225.00 112.00,225.00
             112.00,225.00 113.00,225.00 113.00,225.00 Z
           M 253.00,227.00
           C 253.00,227.00 253.00,228.00 253.00,228.00
             253.00,228.00 252.00,227.00 252.00,227.00
             252.00,227.00 253.00,227.00 253.00,227.00 Z
           M 112.00,228.00
           C 112.00,228.00 112.00,229.00 112.00,229.00
             112.00,229.00 111.00,228.00 111.00,228.00
             111.00,228.00 112.00,228.00 112.00,228.00 Z
           M 254.00,228.00
           C 254.00,228.00 254.00,229.00 254.00,229.00
             254.00,229.00 253.00,228.00 253.00,228.00
             253.00,228.00 254.00,228.00 254.00,228.00 Z
           M 313.00,228.00
           C 313.00,228.00 313.00,229.00 313.00,229.00
             313.00,229.00 312.00,228.00 312.00,228.00
             312.00,228.00 313.00,228.00 313.00,228.00 Z
           M 116.00,229.00
           C 116.00,229.00 116.00,230.00 116.00,230.00
             116.00,230.00 115.00,229.00 115.00,229.00
             115.00,229.00 116.00,229.00 116.00,229.00 Z
           M 125.00,234.00
           C 125.00,234.00 125.00,235.00 125.00,235.00
             125.00,235.00 124.00,234.00 124.00,234.00
             124.00,234.00 125.00,234.00 125.00,234.00 Z
           M 113.00,235.00
           C 113.00,235.00 113.00,236.00 113.00,236.00
             113.00,236.00 112.00,235.00 112.00,235.00
             112.00,235.00 113.00,235.00 113.00,235.00 Z
           M 267.00,235.00
           C 267.00,235.00 267.00,236.00 267.00,236.00
             267.00,236.00 266.00,235.00 266.00,235.00
             266.00,235.00 267.00,235.00 267.00,235.00 Z
           M 160.00,236.00
           C 160.00,236.00 160.00,237.00 160.00,237.00
             160.00,237.00 159.00,236.00 159.00,236.00
             159.00,236.00 160.00,236.00 160.00,236.00 Z
           M 200.00,267.00
           C 200.00,267.00 200.00,268.00 200.00,268.00
             200.00,268.00 199.00,267.00 199.00,267.00
             199.00,267.00 200.00,267.00 200.00,267.00 Z
           M 180.00,272.00
           C 180.00,272.00 180.00,273.00 180.00,273.00
             180.00,273.00 179.00,272.00 179.00,272.00
             179.00,272.00 180.00,272.00 180.00,272.00 Z
           M 194.00,276.00
           C 194.00,276.00 194.00,277.00 194.00,277.00
             194.00,277.00 193.00,276.00 193.00,276.00
             193.00,276.00 194.00,276.00 194.00,276.00 Z
           M 195.00,278.00
           C 195.00,278.00 195.00,279.00 195.00,279.00
             195.00,279.00 194.00,278.00 194.00,278.00
             194.00,278.00 195.00,278.00 195.00,278.00 Z
           M 208.00,279.00
           C 208.00,279.00 208.00,280.00 208.00,280.00
             208.00,280.00 207.00,279.00 207.00,279.00
             207.00,279.00 208.00,279.00 208.00,279.00 Z
           M 176.00,284.00
           C 176.00,284.00 176.00,285.00 176.00,285.00
             176.00,285.00 175.00,284.00 175.00,284.00
             175.00,284.00 176.00,284.00 176.00,284.00 Z
           M 179.00,291.00
           C 179.00,291.00 179.00,292.00 179.00,292.00
             179.00,292.00 178.00,291.00 178.00,291.00
             178.00,291.00 179.00,291.00 179.00,291.00 Z
           M 192.00,292.00
           C 192.00,292.00 192.00,293.00 192.00,293.00
             192.00,293.00 191.00,292.00 191.00,292.00
             191.00,292.00 192.00,292.00 192.00,292.00 Z
           M 205.00,295.00
           C 205.00,295.00 205.00,296.00 205.00,296.00
             205.00,296.00 204.00,295.00 204.00,295.00
             204.00,295.00 205.00,295.00 205.00,295.00 Z
           M 159.00,296.00
           C 159.00,296.00 159.00,297.00 159.00,297.00
             159.00,297.00 158.00,296.00 158.00,296.00
             158.00,296.00 159.00,296.00 159.00,296.00 Z
           M 177.00,307.00
           C 177.00,307.00 177.00,308.00 177.00,308.00
             177.00,308.00 176.00,307.00 176.00,307.00
             176.00,307.00 177.00,307.00 177.00,307.00 Z" />
</svg>
